#!OML:ASF I:\Actors\actors\Patient Classification 1\Patient 1\Session 1\Subject1.ASF
:FULLY-SPECIFIED
:DEGREES
965
root -0.320457 17.5411 7.70584 6.58918 -5.9129 -8.2067
lowerback 1.9392 3.76155 5.25535
upperback -7.8122 5.42202 -0.023008
thorax -8.85902 2.28307 -3.44575
lowerneck -13.004 3.29795 6.67401
upperneck 33.9816 3.44464 -0.935677
head 13.8702 2.26694 -0.998638
rclavicle 1.90833e-014 1.59028e-014
rhumerus -12.2257 64.1952 -98.2054
rradius 95.571
rwrist -13.8509
rhand -17.4099 -72.1607
rfingers 7.12502
rthumb 8.83978 -1338.04
lclavicle 1.90833e-014 1.59028e-014
lhumerus -51.9218 -19.9125 102.695
lradius 108.374
lwrist -5.72579
lhand -52.2293 -19.9103
lfingers 7.12502
lthumb -24.7273 8.51156
rfemur -0.375733 23.1582 25.5227
rtibia 1.60584
rfoot -11.986 -18.5827
rtoes -4.15807
lfemur 13.6522 -45.4161 -21.7336
ltibia -4.8258
lfoot -32.9047 57.2495
ltoes 20.8951
966
root -0.321082 17.5411 7.7045 6.59737 -5.86177 -8.19941
lowerback 1.94947 3.7884 5.21808
upperback -7.81776 5.45658 -0.0261993
thorax -8.87069 2.30218 -3.43244
lowerneck -13.0413 3.27606 6.62725
upperneck 33.9344 3.4108 -0.901678
head 13.8536 2.25027 -0.981714
rclavicle -5.36719e-015 -1.59028e-014
rhumerus -12.7581 64.0192 -98.6619
rradius 95.563
rwrist -13.9613
rhand -17.4925 -72.1989
rfingers 7.12502
rthumb 8.76008 -1338
lclavicle -5.36719e-015 -1.59028e-014
lhumerus -51.9258 -19.9247 102.773
lradius 108.326
lwrist -5.88156
lhand -52.1404 -19.5789
lfingers 7.12502
lthumb -24.6421 8.85463
rfemur -0.410178 23.0924 25.5074
rtibia 1.6324
rfoot -11.9562 -18.572
rtoes -4.28841
lfemur 13.5811 -45.3892 -21.6767
ltibia -4.81454
lfoot -32.866 57.1827
ltoes 20.9047
967
root -0.320908 17.541 7.70355 6.60418 -5.81419 -8.19195
lowerback 1.95937 3.81084 5.20083
upperback -7.82452 5.48577 -0.0394193
thorax -8.88142 2.31677 -3.44032
lowerneck -13.0641 3.26846 6.55277
upperneck 33.8392 3.38074 -0.793536
head 13.8108 2.241 -0.929978
rclavicle 1.56046e-014 2.70347e-014
rhumerus -13.4234 63.7706 -99.2156
rradius 95.5435
rwrist -13.1043
rhand -17.3194 -71.6208
rfingers 7.12502
rthumb 8.92713 -1338.59
lclavicle 1.56046e-014 2.70347e-014
lhumerus -51.8735 -19.7645 102.713
lradius 108.326
lwrist -5.26959
lhand -52.0624 -19.9717
lfingers 7.12502
lthumb -24.5673 8.47207
rfemur -0.442825 23.0069 25.4812
rtibia 1.66073
rfoot -11.9685 -18.5357
rtoes -4.21082
lfemur 13.5212 -45.4028 -21.6486
ltibia -4.7766
lfoot -32.9272 57.1348
ltoes 20.9317
968
root -0.320851 17.5412 7.70265 6.61616 -5.78935 -8.18939
lowerback 1.95832 3.82497 5.18017
upperback -7.81706 5.50276 -0.0442148
thorax -8.87213 2.32697 -3.43489
lowerneck -13.1178 3.28196 6.622
upperneck 33.7425 3.38696 -0.825449
head 13.7829 2.2467 -0.953067
rclavicle -1.30204e-014 -8.74653e-015
rhumerus -14.1118 63.6157 -99.7722
rradius 95.5769
rwrist -11.7507
rhand -16.9097 -70.8476
rfingers 7.12502
rthumb 9.3225 -1339.38
lclavicle -1.30204e-014 -8.74653e-015
lhumerus -51.7669 -19.4658 102.545
lradius 108.392
lwrist -4.31494
lhand -52.1304 -20.4564
lfingers 7.12502
lthumb -24.6325 7.97847
rfemur -0.479118 22.9992 25.466
rtibia 1.70222
rfoot -12.0313 -18.5467
rtoes -3.87585
lfemur 13.4694 -45.428 -21.6248
ltibia -4.74014
lfoot -32.9392 57.1353
ltoes 20.8893
969
root -0.321271 17.5409 7.70234 6.62841 -5.74724 -8.16526
lowerback 1.94902 3.83598 5.14044
upperback -7.79929 5.51271 -0.05694
thorax -8.84791 2.33552 -3.42557
lowerneck -13.1559 3.30401 6.83348
upperneck 33.5939 3.42787 -1.03547
head 13.7377 2.26093 -1.06677
rclavicle 6.95746e-015 -8.74653e-015
rhumerus -14.6001 63.4737 -100.121
rradius 95.6921
rwrist -10.7407
rhand -16.3696 -70.2898
rfingers 7.12502
rthumb 9.84354 -1339.96
lclavicle 6.95746e-015 -8.74653e-015
lhumerus -51.6917 -19.1703 102.38
lradius 108.458
lwrist -3.89487
lhand -52.0202 -20.5459
lfingers 7.12502
lthumb -24.5269 7.9033
rfemur -0.494239 23.026 25.4405
rtibia 1.70549
rfoot -12.0568 -18.6171
rtoes -3.76021
lfemur 13.4003 -45.4233 -21.6013
ltibia -4.7128
lfoot -32.7071 57.1283
ltoes 20.6478
970
root -0.321501 17.5405 7.70242 6.64519 -5.67491 -8.15008
lowerback 1.87988 3.83286 5.13495
upperback -7.75339 5.50073 -0.0700581
thorax -8.75639 2.33397 -3.42735
lowerneck -13.1742 3.32282 6.96412
upperneck 33.3782 3.47457 -1.20944
head 13.6558 2.27104 -1.15127
rclavicle 1.99779e-014 1.51076e-014
rhumerus -14.7678 63.2613 -100.188
rradius 95.8315
rwrist -10.3621
rhand -15.7591 -69.7645
rfingers 7.12502
rthumb 10.4326 -1340.51
lclavicle 1.99779e-014 1.51076e-014
lhumerus -51.6824 -18.8882 102.226
lradius 108.46
lwrist -4.39527
lhand -51.6442 -20.3908
lfingers 7.12502
lthumb -24.1664 8.10688
rfemur -0.48776 23.0231 25.4264
rtibia 1.65532
rfoot -12.0042 -18.6946
rtoes -4.07938
lfemur 13.3306 -45.4316 -21.5625
ltibia -4.69914
lfoot -32.5111 57.0842
ltoes 20.5645
971
root -0.32194 17.5406 7.70267 6.66199 -5.62369 -8.19254
lowerback 1.76467 3.82234 5.19652
upperback -7.68018 5.48037 -0.0621255
thorax -8.60513 2.32717 -3.438
lowerneck -13.2163 3.33386 6.98324
upperneck 33.1395 3.50634 -1.29207
head 13.5639 2.27195 -1.1819
rclavicle -1.23246e-014 4.77083e-015
rhumerus -14.7063 62.9864 -100.086
rradius 95.9387
rwrist -10.1734
rhand -14.7377 -69.2405
rfingers 7.12502
rthumb 11.4178 -1341.09
lclavicle -1.23246e-014 4.77083e-015
lhumerus -51.6993 -18.6179 102.082
lradius 108.454
lwrist -5.28209
lhand -51.3385 -20.0115
lfingers 7.12502
lthumb -23.8732 8.52479
rfemur -0.481085 23.0446 25.4815
rtibia 1.62913
rfoot -11.9988 -18.7601
rtoes -4.27356
lfemur 13.3206 -45.4853 -21.4928
ltibia -4.72447
lfoot -32.6299 57.0617
ltoes 20.7892
972
root -0.322264 17.5408 7.70368 6.66229 -5.63343 -8.20317
lowerback 1.70448 3.81401 5.22226
upperback -7.6415 5.46557 -0.0546646
thorax -8.52699 2.3221 -3.43627
lowerneck -13.2748 3.33659 6.95712
upperneck 33.0009 3.52244 -1.32852
head 13.5167 2.26799 -1.18853
rclavicle -2.60408e-014 -6.36111e-015
rhumerus -14.5952 62.7683 -100.001
rradius 95.9958
rwrist -9.91156
rhand -13.3559 -68.925
rfingers 7.12502
rthumb 12.7501 -1341.48
lclavicle -2.60408e-014 -6.36111e-015
lhumerus -51.7966 -18.4062 102.026
lradius 108.473
lwrist -5.78977
lhand -51.1455 -19.5592
lfingers 7.12502
lthumb -23.6882 9.00118
rfemur -0.468381 23.114 25.5032
rtibia 1.63381
rfoot -12.0741 -18.8104
rtoes -3.98744
lfemur 13.3782 -45.5458 -21.521
ltibia -4.75472
lfoot -32.8296 57.0972
ltoes 20.9108
973
root -0.321621 17.5413 7.70437 6.6646 -5.6734 -8.19176
lowerback 1.7527 3.79491 5.24029
upperback -7.6792 5.44629 -0.047741
thorax -8.59809 2.30808 -3.44337
lowerneck -13.3016 3.33658 6.8319
upperneck 32.9904 3.52897 -1.25248
head 13.513 2.26476 -1.13543
rclavicle -2.88238e-015 1.11319e-014
rhumerus -14.524 62.7309 -100.01
rradius 96.0255
rwrist -9.74757
rhand -12.1009 -68.9378
rfingers 7.12502
rthumb 13.9597 -1341.55
lclavicle -2.88238e-015 1.11319e-014
lhumerus -52.0198 -18.2344 102.069
lradius 108.476
lwrist -5.69788
lhand -51.1243 -19.4231
lfingers 7.12502
lthumb -23.6678 9.13987
rfemur -0.472285 23.1403 25.4849
rtibia 1.63609
rfoot -12.0924 -18.7914
rtoes -3.76404
lfemur 13.4089 -45.5654 -21.573
ltibia -4.75288
lfoot -32.8379 57.1544
ltoes 20.7998
974
root -0.320339 17.5417 7.70384 6.68778 -5.70848 -8.23302
lowerback 1.86631 3.77422 5.33784
upperback -7.77106 5.43624 -0.0497087
thorax -8.7599 2.28797 -3.51226
lowerneck -13.3146 3.33365 6.73302
upperneck 33.0215 3.50228 -1.10899
head 13.5227 2.2601 -1.06547
rclavicle -2.14687e-014 -1.11319e-014
rhumerus -14.4275 62.8357 -100.016
rradius 96.0467
rwrist -9.85687
rhand -11.2312 -69.0874
rfingers 7.12502
rthumb 14.7977 -1341.46
lclavicle -2.14687e-014 -1.11319e-014
lhumerus -52.3193 -18.0805 102.118
lradius 108.452
lwrist -5.39087
lhand -51.346 -19.7062
lfingers 7.12502
lthumb -23.8805 8.82913
rfemur -0.507351 23.1146 25.5111
rtibia 1.63028
rfoot -12.0466 -18.7149
rtoes -3.88973
lfemur 13.3968 -45.5782 -21.5226
ltibia -4.75051
lfoot -32.84 57.1829
ltoes 20.707
975
root -0.31903 17.5417 7.7023 6.71518 -5.77876 -8.24552
lowerback 1.92247 3.78111 5.39772
upperback -7.83573 5.45502 -0.0635893
thorax -8.85698 2.2872 -3.56909
lowerneck -13.443 3.3247 6.68867
upperneck 33.0989 3.45361 -0.999286
head 13.5792 2.24819 -1.01989
rclavicle 3.49861e-014 2.06736e-014
rhumerus -14.1002 63.0092 -99.7633
rradius 96.001
rwrist -10.2528
rhand -11.1848 -69.1156
rfingers 7.12502
rthumb 14.8424 -1341.44
lclavicle 3.49861e-014 2.06736e-014
lhumerus -52.5637 -17.9304 102.155
lradius 108.417
lwrist -5.30615
lhand -51.5635 -19.9304
lfingers 7.12502
lthumb -24.089 8.57747
rfemur -0.559235 23.0842 25.4959
rtibia 1.63244
rfoot -11.9932 -18.6039
rtoes -4.1028
lfemur 13.4048 -45.6082 -21.5197
ltibia -4.7658
lfoot -33.0146 57.218
ltoes 20.8262
